<svg id="Capa_1" enable-background="new 0 0 512 512" height="512" viewBox="0 0 512 512" width="512" xmlns="http://www.w3.org/2000/svg"><g><g><g><path d="m141.273 509.5c-17.395 0-31.546-15.548-31.546-34.659 0-16.116 11.994-29.228 26.737-29.228 12.622 0 22.89 11.162 22.89 24.882 0 4.143-3.358 7.5-7.5 7.5s-7.5-3.357-7.5-7.5c0-5.449-3.539-9.882-7.89-9.882-6.472 0-11.737 6.383-11.737 14.228 0 10.84 7.423 19.659 16.546 19.659 12.438 0 22.558-11.865 22.558-26.449 0-19.264-13.49-34.936-30.072-34.936-4.142 0-7.5-3.357-7.5-7.5s3.358-7.5 7.5-7.5c24.853 0 45.072 22.401 45.072 49.936-.001 22.855-16.849 41.449-37.558 41.449z" fill="#407093"/></g><g><path d="m370.727 509.5c-20.709 0-37.558-18.594-37.558-41.449 0-27.534 20.22-49.936 45.072-49.936 4.143 0 7.5 3.357 7.5 7.5s-3.357 7.5-7.5 7.5c-16.582 0-30.072 15.672-30.072 34.936 0 14.584 10.119 26.449 22.558 26.449 9.124 0 16.547-8.819 16.547-19.659 0-7.845-5.266-14.228-11.737-14.228-4.351 0-7.89 4.433-7.89 9.882 0 4.143-3.357 7.5-7.5 7.5s-7.5-3.357-7.5-7.5c0-13.72 10.269-24.882 22.89-24.882 14.743 0 26.737 13.111 26.737 29.228 0 19.111-14.152 34.659-31.547 34.659z" fill="#407093"/></g></g><g><path d="m446.223 509.5h-380.446c-17.152 0-33.641-7.248-45.238-19.885l-18.565-20.228c-2.801-3.052-2.597-7.797.455-10.597 3.051-2.803 7.796-2.598 10.597.454l18.563 20.229c8.765 9.55 21.225 15.027 34.187 15.027h380.447c12.962 0 25.423-5.478 34.188-15.027l18.563-20.229c2.799-3.052 7.543-3.257 10.597-.454 3.052 2.8 3.255 7.545.454 10.597l-18.563 20.229c-11.598 12.636-28.086 19.884-45.239 19.884z" fill="#365e7d"/></g><g><path d="m295.949 61.286c-1.995 0-3.94-.797-5.371-2.266-.044-.045-5.493-5.554-13.313-10.094-9.541-5.54-18.042-7.179-25.268-4.869-24.343 7.785-51.755 13.534-70.494-2.861-3.117-2.728-3.434-7.466-.706-10.583 2.727-3.116 7.466-3.434 10.583-.706 13.122 11.479 35.696 6.372 56.048-.137 14.384-4.597 28.518.81 38.707 6.989-.644-1.19-1.427-2.389-2.373-3.569-8.232-10.265-26.039-15.69-51.496-15.69-4.142 0-7.5-3.357-7.5-7.5s3.358-7.5 7.5-7.5c30.83 0 52.175 7.273 63.445 21.618 11.459 14.585 7.691 30.762 7.525 31.443-.646 2.649-2.679 4.74-5.31 5.459-.653.179-1.318.266-1.977.266z" fill="#da4a54"/></g><path d="m297.142 61.381c-3.376-15.369-4.732-30.201-2.729-44.141 1.01-7.027 7.043-12.24 14.143-12.24h2.056c5.297 0 10.158 2.931 12.631 7.616l.406.769c3.015 5.712 9.487 8.69 15.786 7.263l15.401-3.489c4.615-1.046 9.467-.578 13.741 1.453.129.061.257.123.386.186 20.769 10.166 26.727 37.049 13.01 55.664-11.953 16.222-30.083 31.685-49.7 46.966l-44.664-22.583z" fill="#c63d4f"/><path d="m395.833 205.024c0 83.843-44.987 151.812-128.831 151.812s-165.622-67.968-165.622-151.812 81.778-151.811 165.622-151.811 128.831 67.968 128.831 151.811z" fill="#dd636e"/><path d="m267.002 53.213c-3.868 0-7.731.147-11.583.431 76.543 5.876 117.477 71.405 117.477 151.381 0 79.975-40.934 145.505-117.477 151.381 3.851.284 7.715.431 11.583.431 83.843 0 128.831-67.969 128.831-151.812 0-83.844-44.988-151.812-128.831-151.812z" fill="#da4a54"/><g><path d="m340.997 344.153h-98.174c-10.132 0-19.492-4.602-25.68-12.626-6.187-8.023-8.258-18.245-5.683-28.045l15.509-59.002c.202-.766.059-1.472-.425-2.099s-1.13-.945-1.922-.945h-187.705c-8.284 0-15-6.716-15-15s6.716-15 15-15h187.705c10.132 0 19.492 4.603 25.68 12.626 6.187 8.024 8.258 18.246 5.682 28.046l-15.508 59.001c-.202.766-.058 1.472.425 2.099s1.13.945 1.922.945h98.174c1.002 0 1.914-.63 2.27-1.567l11.467-30.224c4.748-12.517 16.933-20.926 30.319-20.926h90.031c8.284 0 15 6.716 15 15s-6.716 15-15 15h-90.031c-1.002 0-1.915.63-2.271 1.567l-11.467 30.224c-4.748 12.517-16.932 20.926-30.318 20.926z" fill="#ffe07d"/></g><g fill="#ffd064"><path d="m230.934 224.062c6.187 8.024 8.258 18.246 5.682 28.046l-15.508 59.001c-.202.766-.058 1.472.425 2.099s1.13.945 1.922.945h19.368c-.792 0-1.439-.318-1.922-.945s-.627-1.333-.425-2.099l15.508-59.001c2.576-9.8.505-20.021-5.682-28.046-6.188-8.023-15.547-12.626-25.68-12.626h-19.368c10.133 0 19.492 4.603 25.68 12.626z"/><path d="m363.414 293.003-11.467 30.224c-4.748 12.517-16.933 20.926-30.318 20.926h19.368c13.386 0 25.57-8.409 30.318-20.926l11.467-30.224c.355-.938 1.269-1.567 2.271-1.567h-19.368c-1.002 0-1.915.63-2.271 1.567z"/><path d="m475.084 261.436h-19.368c8.284 0 15 6.716 15 15s-6.716 15-15 15h19.368c8.284 0 15-6.716 15-15s-6.716-15-15-15z"/></g><path d="m385.052 291.436c-1.002 0-1.915.63-2.271 1.567l-11.467 30.224c-4.748 12.517-16.933 20.926-30.318 20.926h-98.174c-10.132 0-19.492-4.602-25.68-12.626-6.187-8.023-8.258-18.245-5.683-28.045l15.509-59.002c.202-.766.059-1.472-.425-2.099s-1.13-.945-1.922-.945h-175.226l25.744 155.784c3.541 21.43 22.071 37.149 43.792 37.149h276.025c20.877 0 38.933-14.55 43.371-34.95l23.493-107.983z" fill="#dd636e"/><g fill="#da4a54"><path d="m204.861 242.381c.483.627.626 1.333.425 2.099l-15.509 59.002c-2.576 9.8-.504 20.021 5.683 28.045 6.188 8.024 15.547 12.626 25.68 12.626h21.683c-10.132 0-19.492-4.602-25.68-12.626-6.187-8.023-8.258-18.245-5.683-28.045l15.509-59.002c.202-.766.059-1.472-.425-2.099s-1.13-.945-1.922-.945h-21.683c.792 0 1.438.318 1.922.945z"/><path d="m440.137 291.436-23.493 107.983c-4.438 20.4-22.494 34.95-43.371 34.95h21.683c20.877 0 38.933-14.55 43.371-34.95l23.493-107.983z"/></g><g><g><path d="m117.226 317.243c-4.142 0-7.5-3.357-7.5-7.5v-36.613c0-4.143 3.358-7.5 7.5-7.5s7.5 3.357 7.5 7.5v36.613c0 4.143-3.358 7.5-7.5 7.5z" fill="#f9f6f9"/></g><g><path d="m104.281 311.881c-1.919 0-3.839-.732-5.303-2.196-2.929-2.93-2.929-7.678 0-10.607l25.89-25.89c2.929-2.928 7.678-2.928 10.606 0 2.929 2.93 2.929 7.678 0 10.607l-25.89 25.89c-1.464 1.463-3.383 2.196-5.303 2.196z" fill="#f9f6f9"/></g><g><path d="m135.533 298.936h-36.614c-4.142 0-7.5-3.357-7.5-7.5s3.358-7.5 7.5-7.5h36.614c4.142 0 7.5 3.357 7.5 7.5s-3.358 7.5-7.5 7.5z" fill="#f9f6f9"/></g><g><path d="m130.171 311.881c-1.919 0-3.839-.732-5.303-2.196l-25.89-25.89c-2.929-2.93-2.929-7.678 0-10.607 2.929-2.928 7.678-2.928 10.606 0l25.89 25.89c2.929 2.93 2.929 7.678 0 10.607-1.464 1.463-3.384 2.196-5.303 2.196z" fill="#f9f6f9"/></g></g><g><g><path d="m385.052 407.016c-4.143 0-7.5-3.357-7.5-7.5v-36.614c0-4.143 3.357-7.5 7.5-7.5s7.5 3.357 7.5 7.5v36.614c0 4.143-3.357 7.5-7.5 7.5z" fill="#f9f6f9"/></g><g><path d="m372.107 401.654c-1.92 0-3.839-.732-5.304-2.197-2.929-2.929-2.929-7.678.001-10.606l25.891-25.89c2.929-2.929 7.678-2.928 10.606.001s2.929 7.678-.001 10.606l-25.891 25.89c-1.463 1.464-3.383 2.196-5.302 2.196z" fill="#f9f6f9"/></g><g><path d="m403.359 388.709h-36.613c-4.143 0-7.5-3.357-7.5-7.5s3.357-7.5 7.5-7.5h36.613c4.143 0 7.5 3.357 7.5 7.5s-3.357 7.5-7.5 7.5z" fill="#f9f6f9"/></g><g><path d="m397.998 401.654c-1.919 0-3.839-.732-5.303-2.196l-25.891-25.89c-2.93-2.929-2.93-7.678-.001-10.606 2.93-2.93 7.679-2.929 10.606-.001l25.891 25.89c2.93 2.929 2.93 7.678.001 10.606-1.464 1.465-3.384 2.197-5.303 2.197z" fill="#f9f6f9"/></g></g><g><g><path d="m162.585 400.95c-4.142 0-7.5-3.357-7.5-7.5v-36.614c0-4.143 3.358-7.5 7.5-7.5s7.5 3.357 7.5 7.5v36.614c0 4.143-3.358 7.5-7.5 7.5z" fill="#f9f6f9"/></g><g><path d="m149.64 395.588c-1.919 0-3.839-.732-5.303-2.196-2.929-2.93-2.929-7.678 0-10.607l25.89-25.89c2.929-2.928 7.678-2.928 10.606 0 2.929 2.93 2.929 7.678 0 10.607l-25.89 25.89c-1.464 1.463-3.383 2.196-5.303 2.196z" fill="#f9f6f9"/></g><g><path d="m180.892 382.643h-36.613c-4.142 0-7.5-3.357-7.5-7.5s3.358-7.5 7.5-7.5h36.613c4.142 0 7.5 3.357 7.5 7.5s-3.358 7.5-7.5 7.5z" fill="#f9f6f9"/></g><g><path d="m175.53 395.588c-1.919 0-3.839-.732-5.303-2.196l-25.89-25.89c-2.929-2.93-2.929-7.678 0-10.607 2.929-2.928 7.678-2.928 10.606 0l25.89 25.89c2.929 2.93 2.929 7.678 0 10.607-1.464 1.463-3.384 2.196-5.303 2.196z" fill="#f9f6f9"/></g></g><g><g><path d="m80.164 509.5c-4.142 0-7.5-3.357-7.5-7.5v-16.908c0-4.143 3.358-7.5 7.5-7.5s7.5 3.357 7.5 7.5v16.908c0 4.142-3.358 7.5-7.5 7.5z" fill="#365e7d"/></g><g><path d="m431.836 509.5c-4.143 0-7.5-3.357-7.5-7.5v-16.908c0-4.143 3.357-7.5 7.5-7.5s7.5 3.357 7.5 7.5v16.908c0 4.142-3.358 7.5-7.5 7.5z" fill="#365e7d"/></g></g><g><path d="m347.432 211.942c-2.127 0-4.188-.906-5.63-2.545l-32.774-37.235-48.199 11.702c-2.708.658-5.558-.241-7.399-2.333l-32.771-37.234-48.199 11.703c-2.707.657-5.558-.24-7.4-2.333l-31.687-36.005c-2.736-3.109-2.434-7.849.675-10.585 3.11-2.736 7.848-2.435 10.585.675l28.691 32.603 48.199-11.703c2.707-.659 5.558.24 7.399 2.333l32.771 37.234 48.198-11.702c2.706-.659 5.558.24 7.399 2.333l32.775 37.235 41.475-10.066c4.026-.978 8.081 1.494 9.057 5.519.978 4.025-1.494 8.081-5.52 9.058l-45.879 11.136c-.583.141-1.177.21-1.766.21z" fill="#ffe07d"/></g></g></svg>