<svg version="1.1" id="Layer_1" xmlns="http://www.w3.org/2000/svg" xmlns:xlink="http://www.w3.org/1999/xlink" x="0" y="0" viewBox="0 0 143.1 141.7" xml:space="preserve"><style>.st2{clip-path:url(#SVGID_2_);fill:#0069a2}</style><defs><path id="SVGID_1_" d="M13.8 4h116v136.3h-116z"/></defs><clipPath id="SVGID_2_"><use xlink:href="#SVGID_1_" overflow="visible"/></clipPath><path d="M14.2 4c.4.9.8 1.7 1.2 2.5 1.7 3.1 4.2 5.3 6.9 7.3 3.9 2.7 8.1 4.8 12.5 6.6 5.8 2.5 11.8 4.5 17.8 6.7 4.7 1.7 9.3 3.4 13.7 5.8 3.2 1.8 6.2 3.8 8.8 6.5 3.9 4 6.2 8.9 7.1 14.5.8 4.6.6 9.3 0 13.9l-.1.1c-.4-.5-.8-1-1.1-1.6-4.3-5.7-9.6-9.9-15.7-13.3-5.7-3-11.6-5.2-17.6-7-4.7-1.4-9.4-2.8-13.9-4.8-4.1-1.8-8-3.9-11.4-6.8-4.9-4.1-7.6-9.4-8.3-15.8-.4-4-.3-8-.1-12 .1-.8.1-1.7.2-2.6" clip-path="url(#SVGID_2_)" fill="#009ad7"/><path d="M25.8 40c1 .6 2 1.1 3 1.7 3.8 2 7.9 3.4 12 4.6.5.1.6.3.6.8v81.4c0 .3 0 .5-.3.6-6.1 2.1-11.2 5.7-15.1 11.3V40z" clip-path="url(#SVGID_2_)" fill="#11a190"/><path class="st2" d="M73.9 61.2c2.9 2.5 5.5 5.2 7.4 8.5.1.2.1.6.1.8-.9 3.3-2.7 5.9-5 8.3-2.9 2.9-6.3 5-9.9 6.9-4.9 2.6-10 4.5-15.1 6.6-2.6 1-5.1 2.1-7.6 3.1-.1 0-.2.1-.3.1v-21c10.7-2.6 21-6.9 30.4-13.3"/><path d="M23.8 84.2v10.3c0 3.2 0 6.4.1 9.7 0 .4-.1.6-.4.7-1.9.9-3.7 2.1-5.2 3.6-2.1 2.2-3.1 5-3.5 8-.1.4-.1.8-.2 1.2-.1-.8-.2-1.7-.3-2.5-.3-3.8-.5-7.6-.2-11.4.3-4.3 1.1-8.5 3.1-12.4 1.5-2.9 3.6-5.3 6.3-7.1 0 .1.1.1.3-.1" clip-path="url(#SVGID_2_)" fill="#0068a8"/><path class="st2" d="M63.7 103c-2.3 0-4 .8-5.3 2.4-1.2 1.6-1.9 3.9-1.9 6.9 0 6.2 2.4 9.3 7.2 9.3 4.6 0 6.8-3.2 6.8-9.6.1-6-2.2-9-6.8-9m-.2 26.2c-5.2 0-9.2-1.5-12.1-4.5-2.9-3-4.4-7.1-4.4-12.3 0-5.3 1.5-9.5 4.6-12.5 3.1-3 7.2-4.5 12.4-4.5 5.1 0 9.2 1.5 12.1 4.5 2.9 3 4.4 7 4.4 12 0 5.4-1.5 9.6-4.5 12.7-3.2 3.1-7.3 4.6-12.5 4.6"/><path fill="#0069a2" d="M86.5 86.2H96v42.2h-9.5z"/><defs><path id="SVGID_3_" d="M13.8 4h116v136.3h-116z"/></defs><clipPath id="SVGID_4_"><use xlink:href="#SVGID_3_" overflow="visible"/></clipPath><path d="M120.8 115.3v-2.2l-5.6.8c-3.1.4-4.6 1.9-4.6 4.4 0 1.1.4 2.1 1.1 2.8.8.7 1.8 1.1 3.1 1.1 1.8 0 3.2-.6 4.4-1.9 1.1-1.4 1.6-3 1.6-5m9 13.1h-9v-4.6h-.1c-2.1 3.6-5.1 5.4-9.2 5.4-3 0-5.4-.9-7.1-2.7-1.7-1.8-2.6-4.1-2.6-7.1 0-6.3 3.6-9.9 10.7-10.8l8.4-1.2c0-3.5-1.8-5.3-5.5-5.3s-7.2 1.1-10.5 3.4V98c1.3-.7 3.1-1.3 5.4-1.9 2.3-.5 4.4-.8 6.3-.8 8.8 0 13.2 4.6 13.2 13.8v19.3z" clip-path="url(#SVGID_4_)" fill="#0069a2"/></svg>