<?xml version="1.0" standalone="no"?>
<!DOCTYPE svg PUBLIC "-//W3C//DTD SVG 20010904//EN"
 "http://www.w3.org/TR/2001/REC-SVG-20010904/DTD/svg10.dtd">
<svg version="1.0" xmlns="http://www.w3.org/2000/svg"
 width="572.000000pt" height="572.000000pt" viewBox="0 0 572.000000 572.000000"
 preserveAspectRatio="xMidYMid meet">
<metadata>
Created by potrace 1.11, written by Peter Selinger 2001-2013
</metadata>
<g transform="translate(0.000000,572.000000) scale(0.100000,-0.100000)"
fill="#000000" stroke="none">
<path d="M562 5467 c-7 -103 -6 -444 1 -508 12 -114 60 -292 88 -325 6 -8 9
-14 5 -14 -10 0 54 -100 106 -167 175 -223 523 -414 1038 -568 256 -77 514
-167 535 -186 5 -5 16 -9 24 -9 20 0 341 -161 341 -171 0 -5 4 -9 9 -9 33 0
256 -173 366 -285 86 -86 185 -207 185 -226 0 -21 30 -7 31 14 0 12 3 51 6 87
12 139 7 356 -11 440 -3 14 -11 50 -17 80 -14 66 -56 187 -75 215 -8 11 -14
25 -14 33 0 7 -4 18 -10 25 -5 7 -32 46 -60 87 -141 212 -393 390 -755 532
-168 67 -210 82 -220 84 -8 2 -174 61 -225 81 -8 4 -18 7 -22 7 -3 1 -10 4
-14 9 -4 4 -14 7 -23 7 -9 0 -28 6 -42 14 -14 7 -39 17 -55 21 -37 11 -34 10
-69 24 -16 7 -34 14 -40 15 -5 2 -19 7 -30 11 -11 4 -54 21 -95 37 -41 17 -88
36 -105 43 -16 7 -64 27 -105 45 -97 42 -221 105 -288 147 -29 18 -55 33 -58
33 -3 0 -19 10 -34 23 -16 12 -45 33 -65 47 -89 60 -255 248 -255 287 0 7 -4
13 -10 13 -5 0 -10 8 -10 19 0 10 -6 23 -13 29 -9 8 -13 -1 -15 -41z"/>
<path d="M1040 4060 c-1 -39 -1 -3915 0 -3942 0 -28 16 -21 40 18 30 47 164
181 221 219 110 73 159 101 239 136 52 23 100 45 105 50 7 5 10 561 9 1646 -1
901 -2 1641 -3 1645 0 3 -16 10 -33 13 -18 4 -37 10 -43 13 -5 4 -18 8 -29 9
-76 12 -475 186 -498 218 -4 6 -8 -6 -8 -25z"/>
<path d="M2920 3223 c-42 -29 -249 -152 -305 -181 -97 -50 -242 -117 -326
-150 -41 -16 -83 -33 -94 -37 -11 -4 -24 -9 -30 -11 -5 -2 -62 -20 -125 -42
-63 -21 -157 -49 -207 -63 l-93 -24 0 -45 c-1 -60 -1 -716 0 -757 0 -25 4 -31
20 -30 11 1 20 4 20 8 0 4 10 9 23 12 12 3 67 24 122 47 55 23 182 75 282 116
274 111 479 208 578 271 82 53 130 87 133 95 2 4 8 8 13 8 21 0 154 130 209
205 47 64 98 163 108 213 8 32 4 44 -26 92 -47 75 -134 174 -229 261 l-39 36
-34 -24z"/>
<path d="M910 2303 c-36 -28 -124 -114 -150 -148 -81 -106 -156 -290 -174
-430 -3 -22 -8 -51 -11 -64 -20 -101 -21 -435 -1 -591 2 -14 4 -36 6 -50 1
-14 8 6 16 44 14 72 43 168 53 176 3 3 13 18 21 35 31 63 200 203 274 228 7 2
9 146 7 413 -1 225 -3 410 -4 411 -2 1 -18 -10 -37 -24z"/>
<path d="M3459 2231 c0 -9 -1 -388 -2 -843 l-2 -827 191 1 190 0 -1 837 c-1
460 -3 839 -4 842 0 4 -84 6 -186 6 -163 0 -185 -2 -186 -16z"/>
<path d="M4606 1882 c-2 -1 -25 -5 -52 -8 -67 -7 -83 -10 -129 -19 -22 -5 -42
-9 -45 -10 -13 -2 -90 -29 -136 -46 l-52 -20 1 -149 0 -148 86 44 c106 54 200
79 311 83 144 4 222 -47 236 -157 3 -29 2 -53 -2 -53 -5 -1 -22 -3 -39 -5 -16
-2 -59 -8 -95 -13 -87 -14 -138 -21 -180 -27 -52 -7 -71 -11 -120 -24 -25 -7
-49 -13 -55 -14 -48 -10 -157 -90 -200 -148 -19 -25 -48 -93 -54 -128 -7 -42
-7 -207 1 -235 44 -168 174 -267 358 -274 154 -5 272 54 367 184 l22 30 0 -91
1 -92 180 0 180 0 -4 452 c-1 248 -6 465 -10 481 -26 113 -66 194 -127 255
-51 51 -148 104 -209 114 -19 3 -48 8 -65 12 -32 6 -164 11 -169 6z m221 -794
c-8 -138 -42 -205 -127 -251 -61 -33 -136 -36 -196 -7 -56 27 -78 67 -78 141
-1 90 55 148 160 165 20 3 46 8 58 10 11 2 41 7 66 10 25 3 46 7 47 8 1 1 19
3 39 4 l36 3 -5 -83z"/>
<path d="M2445 1873 c-11 -2 -47 -8 -80 -15 -76 -14 -206 -75 -266 -125 -143
-119 -215 -292 -221 -533 -1 -39 11 -151 22 -200 23 -103 105 -252 165 -301
11 -10 33 -29 50 -43 40 -35 138 -82 216 -103 90 -25 327 -24 419 1 258 71
414 249 457 521 8 50 8 227 0 280 -31 206 -146 369 -320 453 -45 22 -104 45
-132 52 -48 11 -269 21 -310 13z m237 -330 c49 -27 108 -100 108 -134 0 -10 4
-20 8 -23 12 -7 16 -58 16 -186 -1 -239 -84 -359 -254 -365 -98 -3 -170 24
-222 85 -91 106 -106 371 -30 515 26 49 56 85 71 85 6 0 11 4 11 8 0 11 45 32
80 39 13 2 26 6 27 7 2 2 33 1 70 -1 48 -2 80 -11 115 -30z"/>
</g>
</svg>
